<svg xmlns="http://www.w3.org/2000/svg" width="717.8181884765625" height="452.84293489669193" viewBox="0 0 350 220.80107436427437" class="looka-1j8o68f"><defs id="SvgjsDefs1011"></defs><g id="SvgjsG1012" featurekey="mugSzh-0" transform="matrix(2.9166666666666665,0,0,2.9166666666666665,105,0)" fill="#39e991"><g xmlns="http://www.w3.org/2000/svg"><path d="M36,10.5L23.7,22.8c-0.4,0.4-0.4,1.1,0,1.5c0.4,0.4,1.1,0.4,1.5,0L37.5,12l3.7,0.5L48,5.7L43,5l-0.7-5l-6.9,6.9L36,10.5z"></path><path d="M42,14.5c1.5,2.8,2.4,6,2.4,9.5c0,11.2-9.1,20.3-20.3,20.3C12.8,44.3,3.7,35.2,3.7,24C3.7,12.8,12.8,3.7,24,3.7   c3.4,0,6.6,0.8,9.5,2.3l2.7-2.7C32.6,1.2,28.4,0,24,0C10.8,0,0,10.8,0,24c0,13.2,10.8,24,24,24c13.2,0,24-10.8,24-24   c0-4.4-1.2-8.6-3.3-12.2L42,14.5z"></path><path d="M33.4,10.3c-2.7-1.9-5.9-2.9-9.4-2.9C14.8,7.4,7.4,14.8,7.4,24c0,9.2,7.4,16.6,16.6,16.6S40.6,33.2,40.6,24   c0-3.5-1.1-6.7-2.9-9.4L35,17.3c1.2,2,1.9,4.3,1.9,6.7c0,7.1-5.8,12.9-12.9,12.9c-7.1,0-12.9-5.8-12.9-12.9   c0-7.1,5.8-12.9,12.9-12.9c2.5,0,4.8,0.7,6.7,1.9L33.4,10.3z"></path><path d="M24,18.5c0.4,0,0.8,0,1.1,0.1l2.9-2.9c-1.2-0.6-2.6-0.9-4-0.9c-5.1,0-9.2,4.1-9.2,9.2s4.1,9.2,9.2,9.2s9.2-4.1,9.2-9.2   c0-1.4-0.3-2.8-0.9-4l-2.9,2.9c0,0,0,0,0,0c0.1,0.4,0.1,0.7,0.1,1.1c0,3.1-2.5,5.5-5.5,5.5c-3.1,0-5.5-2.5-5.5-5.5   C18.5,20.9,20.9,18.5,24,18.5z"></path></g></g><g id="SvgjsG1013" featurekey="PPkF4s-0" transform="matrix(3.15031485843388,0,0,3.15031485843388,-3.5913588935490073,142.35823559102053)" fill="#ffffff"><path d="M1.14 20 l0 -12.24 l5.8 0 c2.28 0 4.22 1.72 4.22 4.02 c0 2.32 -2 4.02 -4.22 4.02 l-2.8 0 l0 4.2 l-3 0 z M6.94 10.54 l-2.8 0 l0 2.48 l2.8 0 c0.7 0 1.22 -0.54 1.22 -1.24 s-0.52 -1.24 -1.22 -1.24 z M15.52 15 l0 5 l-3 0 l0 -4.98 c0 -3.32 2.44 -5.12 5.52 -5.12 c0.1 0 0.24 0 0.38 0.02 s0.3 0.06 0.44 0.08 l0 2.9 c-0.1 -0.02 -0.22 -0.04 -0.36 -0.06 s-0.26 -0.04 -0.36 -0.04 c-0.5 0 -0.9 0.06 -1.24 0.16 c-0.56 0.2 -1.06 0.58 -1.24 1.18 c-0.1 0.26 -0.14 0.56 -0.14 0.86 z M24.599999999999998 17.32 c1.46 0 2.3 -0.86 2.3 -2.32 s-0.84 -2.32 -2.3 -2.32 s-2.3 0.86 -2.3 2.32 s0.84 2.32 2.3 2.32 z M24.599999999999998 20.1 c-3.08 0 -5.3 -2.04 -5.3 -5.1 c0 -3.16 2.3 -5.1 5.3 -5.1 c3.1 0 5.3 2.04 5.3 5.1 c0 3.14 -2.32 5.1 -5.3 5.1 z M37.34 17.32 c2.18 0 3.3 -1.4 3.3 -3.44 c0 -2.16 -1.2 -3.44 -3.3 -3.44 c-2.2 0 -3.3 1.4 -3.3 3.44 c0 2.12 1.22 3.44 3.3 3.44 z M37.34 20.1 c-3.76 0 -6.3 -2.56 -6.3 -6.22 c0 -3.78 2.66 -6.22 6.3 -6.22 c3.78 0 6.3 2.54 6.3 6.22 c0 3.8 -2.64 6.22 -6.3 6.22 z M48.36 15 l0 5 l-3 0 l0 -4.98 c0 -3.32 2.44 -5.12 5.52 -5.12 c0.1 0 0.24 0 0.38 0.02 s0.3 0.06 0.44 0.08 l0 2.9 c-0.1 -0.02 -0.22 -0.04 -0.36 -0.06 s-0.26 -0.04 -0.36 -0.04 c-0.5 0 -0.9 0.06 -1.24 0.16 c-0.56 0.2 -1.06 0.58 -1.24 1.18 c-0.1 0.26 -0.14 0.56 -0.14 0.86 z M59.42 14 c0 -1.06 -1.02 -1.32 -1.9 -1.32 s-1.9 0.26 -1.9 1.32 s1.02 1.32 1.9 1.32 s1.9 -0.26 1.9 -1.32 z M58.62 21.9 c0 -0.68 -0.48 -0.94 -1.1 -0.94 s-1.1 0.26 -1.1 0.94 s0.48 0.94 1.1 0.94 s1.1 -0.26 1.1 -0.94 z M61.32 21.9 c0 2.12 -1.98 3 -3.8 3 c-1.84 0 -3.8 -0.96 -3.8 -3 c0 -1.5 1.1 -2.52 2.5 -2.84 l0 -1.08 c-0.58 -0.1 -1.08 -0.28 -1.52 -0.54 c-1.3 -0.68 -2.08 -1.98 -2.08 -3.44 c0 -2.76 2.46 -4.1 4.9 -4.1 c1.08 0 2 0.2 2.76 0.62 c0.78 -0.38 1.54 -0.52 2.4 -0.52 l0.78 0 l0 2.42 l-0.44 0 l-0.44 0 c-0.14 0.02 -0.3 0.04 -0.46 0.08 c0.2 0.46 0.3 0.96 0.3 1.5 c0 2.14 -1.54 3.54 -3.5 3.96 l0 1.12 c1.34 0.38 2.4 1.36 2.4 2.82 z M71.56 15 c-0.08 -1.46 -0.74 -2.32 -2.26 -2.32 c-0.42 0 -0.78 0.06 -1.08 0.18 c-0.92 0.42 -1.26 1.2 -1.26 2.16 c0 0.32 0.04 0.62 0.14 0.88 c0.3 1.04 1.2 1.42 2.2 1.42 c1.52 0 2.26 -0.82 2.26 -2.32 z M75.36 20 l-3 0 c-0.2 -0.5 -0.38 -1 -0.5 -1.52 c-0.68 1.12 -1.72 1.62 -3 1.62 c-2.86 0 -4.9 -2.4 -4.9 -5.14 c0 -3.16 2.36 -5.06 5.34 -5.06 c3.18 0 5.18 2.04 5.26 5.1 c0.02 0.26 0.02 0.56 0.02 0.92 c0 1.4 0.22 2.8 0.78 4.08 z M86.76 15 l0 5 l-3 0 l0 -5 c0 -1.38 -0.64 -2.32 -2.1 -2.32 c-1.44 0 -2.1 0.96 -2.1 2.32 l0 5 l-3 0 l0 -5 c0 -3.08 2.12 -5.1 5.1 -5.1 c3.1 0 5.1 2.12 5.1 5.1 z M88.50000000000001 10 l3 0 l0 10 l-3 0 l0 -10 z M90.00000000000001 9.06 c-1.02 0 -1.74 -0.72 -1.74 -1.74 c0 -1.04 0.72 -1.72 1.74 -1.72 c1.04 0 1.72 0.68 1.72 1.72 c0 1.06 -0.66 1.74 -1.72 1.74 z M96.48 17.28 l5.48 0 l0 2.72 l-9.2 0 l0 -2.74 l5.08 -4.54 l-4.68 0 l0 -2.72 l8.4 0 l0 2.74 z M105.78 13.8 c0.3 0.1 0.64 0.18 1 0.22 c0.36 0.06 0.7 0.08 1.02 0.08 c0.4 0 1.42 -0.08 1.42 -0.66 c0 -0.62 -0.88 -0.64 -1.32 -0.64 c-0.88 0 -1.64 0.2 -2.12 1 z M111.44 16.88 l0 2.8 c-1.12 0.26 -2.24 0.44 -3.4 0.44 c-3.18 0 -5.54 -1.86 -5.54 -5.08 c0 -3.18 2.28 -5.14 5.3 -5.14 c2.06 0 4.44 0.98 4.44 3.32 c0 2.32 -2.52 3.18 -4.46 3.18 c-0.74 0 -1.48 -0.2 -2.16 -0.48 c0.4 1.12 1.6 1.3 2.64 1.3 c0.54 0 1.08 -0.02 1.62 -0.1 c0.5 -0.04 1.08 -0.1 1.56 -0.24 z"></path></g></svg>